<svg width="17" height="29" viewBox="0 0 17 29" fill="none" xmlns="http://www.w3.org/2000/svg">
<mask id="path-1-inside-1_11_110" fill="white">
<path d="M14.4704 28.9049L16.8207 26.5546L4.76606 14.5L16.8207 2.44539L14.4704 0.0951233L0.141327 14.5L14.4704 28.9049Z"/>
</mask>
<path d="M14.4704 28.9049L16.8207 26.5546L4.76606 14.5L16.8207 2.44539L14.4704 0.0951233L0.141327 14.5L14.4704 28.9049Z" fill="#FF9700"/>
<path d="M14.4704 28.9049L10.2166 33.1363L14.4592 37.4014L18.713 33.1475L14.4704 28.9049ZM16.8207 26.5546L21.0633 30.7973L25.306 26.5546L21.0633 22.312L16.8207 26.5546ZM4.76606 14.5L0.523417 10.2574L-3.71922 14.5L0.523417 18.7427L4.76606 14.5ZM16.8207 2.44539L21.0633 6.68804L25.306 2.44539L21.0633 -1.79725L16.8207 2.44539ZM14.4704 0.0951233L18.713 -4.14752L14.4592 -8.40136L10.2166 -4.13631L14.4704 0.0951233ZM0.141327 14.5L-4.11249 10.2686L-8.32166 14.5L-4.11249 18.7314L0.141327 14.5ZM18.713 33.1475L21.0633 30.7973L12.578 22.312L10.2278 24.6623L18.713 33.1475ZM21.0633 22.312L9.0087 10.2574L0.523417 18.7427L12.578 30.7973L21.0633 22.312ZM9.0087 18.7427L21.0633 6.68804L12.578 -1.79725L0.523417 10.2574L9.0087 18.7427ZM21.0633 -1.79725L18.713 -4.14752L10.2278 4.33777L12.578 6.68804L21.0633 -1.79725ZM10.2166 -4.13631L-4.11249 10.2686L4.39515 18.7314L18.7242 4.32656L10.2166 -4.13631ZM-4.11249 18.7314L10.2166 33.1363L18.7242 24.6735L4.39515 10.2686L-4.11249 18.7314Z" fill="#FF9700" mask="url(#path-1-inside-1_11_110)"/>
</svg>
