<svg width="51" height="43" viewBox="0 0 51 43" fill="none" xmlns="http://www.w3.org/2000/svg">
<path d="M0.868593 43C0.683092 42.9981 0.505831 42.9231 0.375328 42.7912C0.244825 42.6594 0.171625 42.4814 0.171635 42.2959V39.1013C0.171635 38.7125 0.486968 38.3972 0.87576 38.3972H3.28913V15.5355C3.28935 15.3871 3.31293 15.2395 3.35901 15.0984L3.35543 15.1091C2.0448 14.7393 0.904258 13.9238 0.130426 12.8032L0.117885 12.7835C0.0437302 12.6695 0.00450002 12.5362 0.00500979 12.4001V0.705917C0.00500979 0.317125 0.320343 0.00179167 0.709135 0H49.1092C49.498 0 49.8133 0.315333 49.8133 0.704125V12.3983C49.813 12.5351 49.7732 12.6689 49.6987 12.7835L49.7005 12.78C49.1507 13.5555 48.4314 14.1954 47.5972 14.6512C46.763 15.1069 45.8358 15.3665 44.8862 15.4101H44.8719V38.3954H46.8266C47.2154 38.3954 47.5307 38.7107 47.5307 39.0995V42.2941C47.5307 42.4808 47.4566 42.6599 47.3245 42.792C47.1925 42.924 47.0134 42.9982 46.8266 42.9982H46.8248L0.868593 43ZM42.059 37.6877V15.5391C42.059 15.4137 42.0751 15.2919 42.1056 15.1772L42.1038 15.188C41.0783 14.9281 40.1352 14.4128 39.3625 13.6901L39.3661 13.6937C38.0514 14.8747 36.3308 15.5013 34.5645 15.4424H34.5752C32.7976 15.4979 31.0684 14.8577 29.7556 13.6579L29.761 13.6632C28.5005 14.8129 26.8553 15.4489 25.1493 15.446L24.936 15.4424H24.9468C23.1693 15.497 21.4405 14.8569 20.1272 13.6579L20.1326 13.6632C18.8715 14.813 17.2256 15.449 15.519 15.446L15.2897 15.4424H15.3005C13.5229 15.4973 11.794 14.8572 10.4809 13.6579L10.4863 13.6632C9.29239 14.767 7.73812 15.3993 6.1128 15.4424H6.10384V37.6895H8.17501V28.2779C8.17501 27.8891 8.49034 27.5738 8.87913 27.5738H17.2122C17.601 27.5738 17.9163 27.8891 17.9163 28.2779V37.6895L42.059 37.6877ZM34.5752 14.0341C35.2988 14.0604 36.0204 13.9416 36.6973 13.6847C37.3743 13.4277 37.9929 13.0379 38.5169 12.5381L38.5151 12.5399C38.504 12.4911 38.4986 12.4412 38.499 12.3912V1.41004H30.5977V12.3983L30.5995 12.4467L30.5977 12.4969V12.4951C31.6117 13.4855 32.9733 14.0393 34.3907 14.0377L34.5878 14.0341H34.5788H34.5752ZM15.3005 14.0341L15.4904 14.0377C16.9667 14.0377 18.3051 13.45 19.2851 12.4951L19.2833 12.4969L19.2815 12.4485L19.2833 12.3983V12.4001V1.41183H11.314V12.4001L11.3158 12.4485L11.314 12.4987V12.4969C12.328 13.4873 13.6896 14.041 15.107 14.0395L15.3076 14.0359H15.2987L15.3005 14.0341ZM20.4479 32.8377C20.3555 32.8377 20.2639 32.8195 20.1785 32.7841C20.093 32.7487 20.0154 32.6968 19.95 32.6314C19.8846 32.566 19.8328 32.4884 19.7974 32.403C19.762 32.3176 19.7438 32.226 19.7438 32.1335V19.9126C19.7438 19.5238 20.0591 19.2085 20.4479 19.2085H40.1724C40.5612 19.2085 40.8765 19.5238 40.8765 19.9126V32.1353C40.8765 32.3221 40.8023 32.5012 40.6703 32.6332C40.5382 32.7653 40.3591 32.8395 40.1724 32.8395H40.1706L20.4479 32.8377Z" fill="#FF9700"/>
</svg>
