<svg width="49" height="49" viewBox="0 0 49 49" fill="none" xmlns="http://www.w3.org/2000/svg">
<path d="M22.81 0.0830154C21.878 0.170515 20.159 0.461514 20.0135 0.549014C19.868 0.646014 19.2365 2.71452 19.023 3.85052C18.78 5.11302 18.761 6.77351 18.9745 7.71501C19.3825 9.45301 20.3145 10.6085 22.985 12.638C23.927 13.3565 24.9755 14.221 25.296 14.5605C25.8885 15.1725 26.5975 16.1725 26.5975 16.396C26.5975 16.5515 26.811 16.4445 27.4035 16.0075C27.6755 15.794 28.627 15.182 29.511 14.6385C32.1035 13.046 33.036 12.2305 33.638 11.0455C34.6675 9.01602 34.3175 5.78251 32.696 2.28651C32.3075 1.44201 32.298 1.43202 31.764 1.23802C29.1215 0.248016 25.694 -0.198484 22.81 0.0830154Z" fill="url(#paint0_linear_11_84)"/>
<path d="M17.6635 0.32601C16.702 0.588011 15.6245 1.33601 14.469 2.54951C13.566 3.50101 13.1485 4.32651 13.158 5.17151C13.158 5.96751 13.401 6.45351 14.333 7.53101C15.566 8.94901 16.013 9.98801 16.013 11.386C16.013 12.192 15.8575 12.969 15.3625 14.6295C14.8965 16.2315 14.8675 17.125 15.2555 17.97C15.469 18.4265 15.5855 18.5625 15.8865 18.679C18.081 19.582 19.528 20.446 20.7125 21.563L21.392 22.204L22.14 21.485C22.5575 21.087 23.14 20.611 23.4315 20.407C23.849 20.135 24.053 19.9115 24.325 19.407C24.519 19.0575 24.8395 18.5425 25.0535 18.261C25.2575 17.9795 25.4325 17.6785 25.4325 17.5715C25.4325 17.2705 24.772 16.27 24.141 15.6295C23.811 15.2895 22.762 14.4255 21.82 13.707C19.402 11.862 18.431 10.7745 17.79 9.20151C17.363 8.14301 17.256 7.35651 17.3045 5.75451C17.3435 4.17151 17.596 2.82201 18.1495 1.18101C18.3145 0.71501 18.441 0.29751 18.441 0.24851C18.44 0.14151 18.2945 0.161011 17.6635 0.32601Z" fill="url(#paint1_linear_11_84)"/>
<path d="M34.472 2.33602C36.113 6.34652 36.249 9.80352 34.831 12.192C34.307 13.0755 33.093 14.202 31.685 15.105C28.558 17.125 28.0725 17.4455 27.6065 17.853C27.3345 18.086 26.985 18.416 26.849 18.591L26.587 18.9015L27.053 18.756C27.3055 18.6785 28.0145 18.5035 28.626 18.3775C34.9575 17.028 39.696 14.474 41.8325 11.279L42.318 10.5505L42.017 9.70552C41.8615 9.23952 41.59 8.59852 41.4345 8.27802C40.172 5.75352 37.473 3.15102 34.5985 1.69452L34.103 1.44202L34.472 2.33602Z" fill="url(#paint2_linear_11_84)"/>
<path d="M12.167 2.41352C10.6815 3.35552 8.7005 5.24902 7.603 6.77352C6.5155 8.27852 5.5345 10.1525 4.9035 11.9005L4.651 12.619L4.855 12.9005C5.389 13.648 7.5935 15.338 9.118 16.173C10.2735 16.804 13.41 18.047 13.5365 17.9305C13.546 17.911 13.527 17.639 13.478 17.319C13.3615 16.581 13.4975 15.571 13.9245 14.095C14.7885 11.0555 14.6625 10.2305 13.041 8.41452C12.643 7.96802 12.1865 7.33652 12.031 7.01602C11.332 5.59852 11.4485 4.08352 12.3805 2.61702C12.565 2.34502 12.691 2.11202 12.6815 2.11202C12.6625 2.11252 12.439 2.24852 12.167 2.41352Z" fill="url(#paint3_linear_11_84)"/>
<path d="M43.755 11.085C41.716 15.0565 36.6565 18.135 29.6265 19.698C28.6265 19.9215 27.4415 20.232 26.9855 20.3875C25.3835 20.9505 24.024 21.7955 22.917 22.9315L22.383 23.4655L22.7325 24.1745C23.917 26.544 24.1015 29.4765 23.2955 32.8655C23.1885 33.322 23.1015 33.7395 23.1015 33.8075C23.1015 33.9045 23.713 34.8075 24.6355 36.0895L24.8005 36.313L25.5385 35.3615C30.5005 28.8845 37.8705 24.5825 45.571 23.631C46.2605 23.5435 46.7555 23.437 46.804 23.369C47.076 22.922 47.1145 18.7175 46.8525 17.261C46.532 15.4065 46.0755 13.9205 45.3765 12.425C44.9295 11.4635 44.2985 10.3665 44.1915 10.3665C44.1535 10.3665 43.959 10.6965 43.755 11.085Z" fill="url(#paint4_linear_11_84)"/>
<path d="M2.08751 12.9105C1.88351 15.7945 2.08751 19.902 2.54401 22.456L2.75751 23.6115L3.69951 23.728C7.32151 24.1845 11.4385 25.4565 14.614 27.107C16.935 28.321 18.663 29.525 20.644 31.3215L21.819 32.3995L21.984 31.5545C22.227 30.263 22.285 28.3695 22.091 27.2915C21.596 24.4465 19.9935 22.4365 17.0125 20.931C15.8085 20.3195 14.9055 19.9695 12.876 19.348C9.95301 18.4545 7.64201 17.299 5.67101 15.755C4.71951 15.007 3.30151 13.5505 2.67051 12.667C2.41801 12.3075 2.19451 12.0165 2.18501 12.0165C2.16551 12.0175 2.12651 12.4155 2.08751 12.9105Z" fill="url(#paint5_linear_11_84)"/>
<path d="M0.34 25.913C1.0685 27.8745 2.379 30.3215 3.7095 32.2055C7.1275 37.012 12.371 40.8575 17.906 42.615C18.605 42.8285 19.3235 43.081 19.508 43.1685C20.2265 43.518 20.751 45.062 20.8385 47.1205C20.8675 47.9555 20.9355 48.4605 21.023 48.606L21.159 48.8195H24.6355C26.568 48.8195 28.1605 48.7805 28.238 48.732C28.335 48.664 28.3935 48.4215 28.4225 47.9745C28.4515 47.421 28.5875 46.994 29.2965 45.207C29.879 43.7505 30.1995 43.0705 30.3355 43.003C30.4425 42.9445 31.1025 42.702 31.792 42.459C34.433 41.527 37.7735 39.6625 39.9975 37.8855C42.7455 35.681 45.377 32.564 47.1055 29.447C47.9505 27.942 49.1255 25.194 48.9895 25.058C48.8925 24.951 45.6395 25.2135 44.416 25.4175C39.881 26.1845 35.531 28.156 31.841 31.1175C29.9765 32.613 27.578 35.1475 26.1895 37.08L25.636 37.8665L26.0635 38.7305C26.617 39.828 27.1605 41.1875 27.6075 42.5955C27.9765 43.7605 28.0155 44.0615 27.86 44.353C27.656 44.732 26.9085 44.79 26.6265 44.4405C26.568 44.3625 26.3835 43.848 26.209 43.285C24.412 37.42 21.188 33.031 16.3525 29.8945C12.1965 27.185 6.4475 25.369 1.107 25.068L0 25L0.34 25.913Z" fill="url(#paint6_linear_11_84)"/>
<defs>
<linearGradient id="paint0_linear_11_84" x1="19.0729" y1="8.23172" x2="34.22" y2="8.23172" gradientUnits="userSpaceOnUse">
<stop stop-color="#4AE0AA"/>
<stop offset="1" stop-color="#76C3E4"/>
</linearGradient>
<linearGradient id="paint1_linear_11_84" x1="13.3542" y1="11.193" x2="25.4325" y2="11.193" gradientUnits="userSpaceOnUse">
<stop stop-color="#4AE0AA"/>
<stop offset="1" stop-color="#76C3E4"/>
</linearGradient>
<linearGradient id="paint2_linear_11_84" x1="26.8387" y1="10.1718" x2="42.318" y2="10.1718" gradientUnits="userSpaceOnUse">
<stop stop-color="#4AE0AA"/>
<stop offset="1" stop-color="#76C3E4"/>
</linearGradient>
<linearGradient id="paint3_linear_11_84" x1="4.80785" y1="10.0251" x2="14.4538" y2="10.0251" gradientUnits="userSpaceOnUse">
<stop stop-color="#4AE0AA"/>
<stop offset="1" stop-color="#76C3E4"/>
</linearGradient>
<linearGradient id="paint4_linear_11_84" x1="22.7773" y1="23.3397" x2="47.0298" y2="23.3397" gradientUnits="userSpaceOnUse">
<stop stop-color="#4AE0AA"/>
<stop offset="1" stop-color="#76C3E4"/>
</linearGradient>
<linearGradient id="paint5_linear_11_84" x1="2.33157" y1="22.208" x2="22.2072" y2="22.208" gradientUnits="userSpaceOnUse">
<stop stop-color="#4AE0AA"/>
<stop offset="1" stop-color="#76C3E4"/>
</linearGradient>
<linearGradient id="paint6_linear_11_84" x1="0.784005" y1="36.9097" x2="49.0003" y2="36.9097" gradientUnits="userSpaceOnUse">
<stop stop-color="#4AE0AA"/>
<stop offset="1" stop-color="#76C3E4"/>
</linearGradient>
</defs>
</svg>
