<svg width="50" height="50" viewBox="0 0 50 50" fill="none" xmlns="http://www.w3.org/2000/svg">
<path d="M49.405 20.67C49.405 19.095 49.16 17.52 48.665 16C46.435 9.14999 39.585 4.54999 31.625 4.54999C29.635 4.54999 27.645 4.83999 25.71 5.41999L25.6 5.44999L12.01 11.875C7.70501 13.19 3.87501 16.035 2.00001 19.815C0.885009 22.06 0.495009 24.61 0.535009 28.05V34.92C0.485009 35.155 0.485009 35.4 0.555009 35.645C0.585009 35.82 0.640009 35.985 0.725009 36.135C2.86501 42.03 8.60001 45.45 15.22 45.45C16.88 45.45 19.035 45.335 20.715 45.02L35.94 42.88L36.05 42.85C40.14 41.63 43.745 39.175 46.195 35.945C47.795 33.83 48.865 31.44 49.35 28.97C49.53 28.72 49.55 20.905 49.405 20.67ZM30.06 15.795C30.78 14.425 32.085 13.375 33.65 12.905C34.24 12.73 34.85 12.64 35.465 12.64C37.965 12.64 40.12 14.115 40.835 16.305C41.255 17.595 41.13 18.98 40.48 20.215C39.76 21.585 38.455 22.635 36.89 23.105C36.3 23.28 35.69 23.37 35.075 23.37C32.575 23.37 30.42 21.895 29.705 19.705C29.29 18.415 29.415 17.03 30.06 15.795ZM43.795 34.13C41.75 36.83 38.73 38.89 35.29 39.94L19.96 42.11C11.55 42.925 5.74501 40.895 2.68001 35.515L2.66501 33.455C5.97501 37.8 10.55 40.325 15.915 40.145C17.595 40.145 36 37.29 36 37.29C39.855 36.14 43.22 33.9 45.62 30.96C45.165 32.07 44.55 33.135 43.795 34.13ZM35.075 20.37C35.395 20.37 35.715 20.325 36.03 20.23C36.825 19.995 37.475 19.48 37.82 18.825C38.01 18.465 38.19 17.895 37.975 17.24C37.665 16.285 36.655 15.645 35.46 15.645C35.14 15.645 34.82 15.69 34.505 15.785C33.71 16.02 33.06 16.535 32.715 17.19C32.525 17.55 32.345 18.12 32.555 18.775C32.87 19.73 33.88 20.37 35.075 20.37Z" fill="url(#paint0_linear_11_75)"/>
<defs>
<linearGradient id="paint0_linear_11_75" x1="1.28372" y1="25" x2="49.501" y2="25" gradientUnits="userSpaceOnUse">
<stop stop-color="#E0534A"/>
<stop offset="1" stop-color="#E4CC76"/>
</linearGradient>
</defs>
</svg>
