<svg width="43" height="43" viewBox="0 0 43 43" fill="none" xmlns="http://www.w3.org/2000/svg">
<path d="M36.55 13.975C34.8778 6.9278 28.6667 2.03058 21.5 2.03058C12.9 2.03058 5.97223 8.95836 5.97223 17.5584C5.97223 25.6806 12.3028 32.3695 20.3056 32.9667V38.9389C20.3056 39.6556 20.7833 40.1334 21.5 40.1334C22.2167 40.1334 22.6944 39.6556 22.6944 38.9389V21.8584L28.3083 16.2445C28.7861 15.7667 28.7861 15.05 28.3083 14.5722C27.8306 14.0945 27.1139 14.0945 26.6361 14.5722L22.6944 18.6334V15.05L18.7528 11.1084C18.275 10.6306 17.5583 10.6306 17.0806 11.1084C16.6028 11.5861 16.6028 12.3028 17.0806 12.7806L20.3056 16.0056V23.4111L15.7667 18.8722C15.2889 18.3945 14.5722 18.3945 14.0944 18.8722C13.6167 19.35 13.6167 20.0667 14.0944 20.5445L20.3056 26.7556V30.5778C13.6167 29.9806 8.36112 24.3667 8.36112 17.5584C8.36112 10.2722 14.2139 4.41947 21.5 4.41947C28.7861 4.41947 34.6389 10.2722 34.6389 17.5584C34.6389 23.4111 30.6972 28.5472 25.0833 30.2195V32.7278C33.4444 30.6972 38.5805 22.3361 36.55 13.975Z" fill="#65A26B"/>
</svg>
