<svg width="50" height="42" viewBox="0 0 50 42" fill="none" xmlns="http://www.w3.org/2000/svg">
<path d="M16.0045 0.977493C15.4875 1.44649 14.961 2.53799 14.8555 3.35199C14.7025 4.57749 14.932 5.59249 15.9085 8.14899C16.6075 9.96799 16.77 10.581 16.77 11.366C16.77 12.046 16.588 12.5245 16.1095 13.118C15.4295 13.9605 15.985 15.052 17 14.8605C17.699 14.7265 18.6085 13.3 18.7715 12.084C18.944 10.8395 18.6855 9.61349 17.7185 7.16249C17.029 5.40049 16.8375 4.65399 16.8855 3.83999C16.914 3.26549 16.962 3.08349 17.2015 2.73899C17.8145 1.86749 17.843 1.79099 17.7855 1.44649C17.6995 0.996494 17.2495 0.632494 16.761 0.632494C16.464 0.632994 16.3105 0.709494 16.0045 0.977493Z" fill="url(#paint0_linear_12_70)"/>
<path d="M24.1715 0.958494C23.626 1.44699 23.2045 2.22249 23.032 3.03599C22.7735 4.27099 22.9935 5.47749 23.951 7.94799C25.1385 11.0215 25.1955 11.9215 24.286 13.032C24.1135 13.252 23.9315 13.5395 23.903 13.6735C23.817 14.0275 24.0755 14.5735 24.42 14.746C25.023 15.062 25.4925 14.861 26.105 14.028C26.67 13.262 26.919 12.448 26.919 11.366C26.919 10.284 26.6895 9.35549 25.9135 7.35399C25.119 5.27649 24.975 4.71149 25.023 3.83999C25.0515 3.26549 25.0995 3.08349 25.339 2.74849C26.057 1.72399 26.105 1.33149 25.559 0.871992C25.129 0.508492 24.631 0.536994 24.1715 0.958494Z" fill="url(#paint1_linear_12_70)"/>
<path d="M32.205 1.07349C31.975 1.3225 31.6495 1.8105 31.487 2.1555C31.2285 2.6915 31.1805 2.9215 31.152 3.71599C31.104 4.92249 31.2765 5.7075 32.0425 7.718C32.8945 9.9585 33.0575 10.533 33.067 11.3085C33.067 12.0935 32.933 12.4765 32.435 13.0605C31.9085 13.702 31.985 14.42 32.617 14.7555C33.297 15.129 34.101 14.5735 34.685 13.329C35.4125 11.778 35.2785 10.447 34.101 7.40199C32.933 4.36699 32.866 3.43799 33.7565 2.385C34.417 1.6 34.0245 0.632996 33.0385 0.632996C32.6835 0.632996 32.578 0.690495 32.205 1.07349Z" fill="url(#paint2_linear_12_70)"/>
<path d="M20.7055 17.207C21.366 18.2125 22.611 20.386 23.08 21.3435C23.798 22.8465 24.1525 23.881 24.2195 24.685C24.258 25.25 24.229 25.3935 23.9995 25.8625C23.6835 26.5135 23.1855 26.906 22.477 27.069C21.481 27.289 21.395 27.2415 16.962 23.7465C14.779 22.023 12.644 20.3475 12.213 20.0125L11.4375 19.4095L10.4515 19.6965C6.02752 20.979 2.89652 23.2195 1.44102 26.1495C0.637024 27.7865 0.301524 29.788 0.617524 31.0515C1.47002 34.336 5.76902 37.869 11.217 39.7455C13.113 40.3965 15.0275 40.837 17.5365 41.201C19.241 41.4405 25.187 41.4405 27.542 41.201C36.7145 40.2435 43.7905 37.869 47.3045 34.5655C49.095 32.8805 49.727 31.2525 49.43 29.041C48.9415 25.403 45.9925 21.5535 42.1625 19.5715L41.425 19.1885L41.368 21.563C41.301 23.9565 41.234 24.56 40.889 25.69C40.4295 27.1835 39.175 27.576 38.093 26.5805C37.3655 25.9105 36.925 25.058 34.675 19.926C33.89 18.1355 33.7845 17.9825 33.076 17.657C32.5205 17.408 30.874 16.9485 30.797 17.025C30.778 17.044 31.017 17.456 31.333 17.9345C32.913 20.376 34.2915 23.919 34.167 25.259C34.033 26.7145 32.932 27.4035 31.6585 26.8195C31.4005 26.705 29.725 25.106 26.4695 21.86L21.6725 17.0725L21.117 17.0245L20.5615 16.9765L20.7055 17.207ZM43.0245 31.5495C43.2925 31.789 43.3405 31.894 43.3405 32.2675C43.3405 32.842 43.0245 33.158 41.914 33.7035C39.0985 35.083 33.287 36.5 28.145 37.065C23.4055 37.582 17.297 37.3905 13.0935 36.5765C9.77102 35.935 8.29652 35.0255 8.76552 33.9245C9.04302 33.2545 9.85702 33.1105 10.4605 33.6085C11.2455 34.269 14.7595 34.9395 18.867 35.2075C21.3755 35.3705 26.01 35.2745 28.1355 35.016C33.1815 34.413 38.7155 33.0435 41.138 31.7895C42.2775 31.1955 42.5935 31.157 43.0245 31.5495Z" fill="url(#paint3_linear_12_70)"/>
<path d="M16.8181 17.714C15.0181 18.365 14.0891 18.7385 14.0891 18.815C14.0891 18.8535 15.8506 20.2705 18.0051 21.965C21.8446 24.981 22.2755 25.2685 22.4671 24.9525C22.4956 24.895 22.4671 24.8565 22.3906 24.8565C22.3046 24.8565 22.1991 24.6265 22.0936 24.2435C21.9116 23.573 21.0976 21.8305 20.3606 20.5475C19.4416 18.939 18.3116 17.292 18.1391 17.3015C18.0436 17.3025 17.4501 17.4845 16.8181 17.714Z" fill="url(#paint4_linear_12_70)"/>
<path d="M27.9825 17.5325C27.561 17.724 26.1535 18.557 26.1535 18.624C26.1535 18.6625 27.494 20.022 29.1315 21.6495C31.477 23.9955 32.09 24.56 32.0325 24.3305C31.64 22.636 29.926 19.208 28.7675 17.791C28.394 17.341 28.423 17.3505 27.9825 17.5325Z" fill="url(#paint5_linear_12_70)"/>
<path d="M38.505 19.2175C37.4805 19.495 36.8775 19.706 36.8775 19.773C36.8775 19.888 38.237 22.99 38.6395 23.7755C38.831 24.1585 39.0225 24.4745 39.0705 24.4745C39.2045 24.4745 39.2715 23.6895 39.3385 21.334L39.396 19.1125L39.1185 19.122C38.9645 19.1215 38.687 19.1695 38.505 19.2175Z" fill="url(#paint6_linear_12_70)"/>
<defs>
<linearGradient id="paint0_linear_12_70" x1="14.8763" y1="7.75755" x2="18.8213" y2="7.75755" gradientUnits="userSpaceOnUse">
<stop stop-color="#E0BF4A"/>
<stop offset="0.0001" stop-color="#E0A44A"/>
<stop offset="1" stop-color="#F7E227"/>
</linearGradient>
<linearGradient id="paint1_linear_12_70" x1="22.9957" y1="7.75351" x2="26.919" y2="7.75351" gradientUnits="userSpaceOnUse">
<stop stop-color="#E0BF4A"/>
<stop offset="0.0001" stop-color="#E0A44A"/>
<stop offset="1" stop-color="#F7E227"/>
</linearGradient>
<linearGradient id="paint2_linear_12_70" x1="31.2084" y1="7.75157" x2="35.1329" y2="7.75157" gradientUnits="userSpaceOnUse">
<stop stop-color="#E0BF4A"/>
<stop offset="0.0001" stop-color="#E0A44A"/>
<stop offset="1" stop-color="#F7E227"/>
</linearGradient>
<linearGradient id="paint3_linear_12_70" x1="1.28382" y1="29.1786" x2="49.5003" y2="29.1786" gradientUnits="userSpaceOnUse">
<stop stop-color="#E0BF4A"/>
<stop offset="0.0001" stop-color="#E0A44A"/>
<stop offset="1" stop-color="#F7E227"/>
</linearGradient>
<linearGradient id="paint4_linear_12_70" x1="14.2233" y1="21.1771" x2="22.4779" y2="21.1771" gradientUnits="userSpaceOnUse">
<stop stop-color="#E0BF4A"/>
<stop offset="0.0001" stop-color="#E0A44A"/>
<stop offset="1" stop-color="#F7E227"/>
</linearGradient>
<linearGradient id="paint5_linear_12_70" x1="26.2476" y1="20.8964" x2="32.0361" y2="20.8964" gradientUnits="userSpaceOnUse">
<stop stop-color="#E0BF4A"/>
<stop offset="0.0001" stop-color="#E0A44A"/>
<stop offset="1" stop-color="#F7E227"/>
</linearGradient>
<linearGradient id="paint6_linear_12_70" x1="36.9178" y1="21.7935" x2="39.396" y2="21.7935" gradientUnits="userSpaceOnUse">
<stop stop-color="#E0BF4A"/>
<stop offset="0.0001" stop-color="#E0A44A"/>
<stop offset="1" stop-color="#F7E227"/>
</linearGradient>
</defs>
</svg>
