<svg width="57" height="57" viewBox="0 0 57 57" fill="none" xmlns="http://www.w3.org/2000/svg">
<path d="M24.7807 12.5109C24.8138 12.6204 24.9118 13.0353 24.9991 13.44C25.2504 14.5219 26.0154 16.8173 26.4964 17.9425C26.737 18.4777 26.912 18.9263 26.8897 18.948C26.8789 18.9588 26.3323 19.1338 25.666 19.3196C21.4257 20.5764 16.8025 22.7841 13.2183 25.2539L12.3439 25.8546L11.7534 25.2533C9.91743 23.3957 6.24549 21.3408 1.88499 19.7454C1.21809 19.5048 0.638968 19.319 0.595648 19.3413C0.453718 19.3851 1.29504 21.4178 2.1147 23.0571C3.09852 25.0242 4.27842 26.7399 5.46972 27.9312L6.49686 28.9475L5.76441 29.7341C4.28925 31.3187 2.93379 33.308 1.78638 35.592C1.11948 36.9252 0.463978 38.5537 0.584248 38.5537C0.638968 38.5537 1.21809 38.3679 1.86276 38.1273C5.99355 36.6522 9.77493 34.5534 11.7095 32.6741L12.2886 32.1058L13.1847 32.7505C15.8078 34.652 19.425 36.5211 22.9328 37.7887C23.6539 38.0509 24.2552 38.2698 24.2769 38.2806C24.2877 38.2915 24.1241 38.6848 23.9052 39.155C23.1619 40.7613 21.9929 44.4771 22.1673 44.6521C22.2437 44.7285 24.3532 43.8216 26.0581 42.9689C27.6644 42.1709 28.9868 41.406 30.3422 40.4991L31.3158 39.8544L32.2774 39.9747C33.9714 40.1713 36.5068 40.2261 38.0042 40.095C39.2502 39.9747 41.7747 39.5814 41.8728 39.4936C41.8836 39.4719 41.5559 39.0017 41.1403 38.4334C39.8071 36.663 38.7577 34.2257 38.3211 31.8545C38.0589 30.4449 38.0589 27.2865 38.3319 25.931C38.8455 23.3079 40.026 20.707 41.4903 18.9582C41.8072 18.5649 41.8944 18.4008 41.7964 18.3352C41.3706 18.073 37.8623 17.6905 35.873 17.6797H34.6053L34.1242 17.3081C32.201 15.8437 29.0421 14.0733 26.1134 12.8273C24.8132 12.2704 24.693 12.2373 24.7807 12.5109Z" fill="url(#paint0_linear_11_97)"/>
<path d="M43.3155 19.5048C39.5449 23.6356 38.7475 30.3571 41.4031 35.6136C41.8403 36.4549 42.6708 37.6571 43.2938 38.3456L43.8296 38.9247L44.6926 38.6187C46.8238 37.8754 49.7091 36.2361 51.7309 34.619C54.0041 32.8047 56.43 29.8652 56.43 28.9361C56.43 28.182 55.0637 26.2257 53.3811 24.5647C51.0207 22.226 48.2773 20.4881 45.0095 19.2643C44.4412 19.0568 43.9601 18.8818 43.9276 18.8818C43.906 18.8818 43.6324 19.1663 43.3155 19.5048ZM47.5015 25.5924C48.6273 26.0627 48.9003 27.527 48.0259 28.4014C47.3157 29.1116 46.3102 29.1116 45.6 28.4014C44.2446 27.0568 45.7419 24.8492 47.5015 25.5924Z" fill="url(#paint1_linear_11_97)"/>
<defs>
<linearGradient id="paint0_linear_11_97" x1="1.23074" y1="28.5001" x2="41.873" y2="28.5001" gradientUnits="userSpaceOnUse">
<stop stop-color="#4AD7E0"/>
<stop offset="1" stop-color="#76A2E4"/>
</linearGradient>
<linearGradient id="paint1_linear_11_97" x1="40.1083" y1="28.9033" x2="56.43" y2="28.9033" gradientUnits="userSpaceOnUse">
<stop stop-color="#4AD7E0"/>
<stop offset="1" stop-color="#76A2E4"/>
</linearGradient>
</defs>
</svg>
